<svg id="Layer_1" data-name="Layer 1" xmlns="http://www.w3.org/2000/svg" viewBox="0 0 48 48"><defs><style>.cls-1{fill:#dc9e70;}</style></defs><path id="id_102" data-name="id 102" class="cls-1" d="M43.47,25.87A7,7,0,0,0,44.83,20L42.55,10A7,7,0,0,0,35.72,4.5h-14a17,17,0,0,0-3.68.4l-2.45.55A5.82,5.82,0,0,1,16,7.5v18a6,6,0,0,1-.74,2.89,10.85,10.85,0,0,1,2.38,3.38l4.28,10.61A3.5,3.5,0,0,0,27,44a5.48,5.48,0,0,0,2.61-5.48l-1.3-10H38a7,7,0,0,0,5.47-2.63Z"/><rect id="id_103" data-name="id 103" class="cls-1" x="3" y="3.5" width="11" height="26" rx="4"/></svg>