<svg id="Layer_1" data-name="Layer 1" xmlns="http://www.w3.org/2000/svg" viewBox="0 0 48 48"><defs><style>.cls-1{fill:#dc9e70;}</style></defs><path id="id_101" data-name="id 101" class="cls-1" d="M43.47,26.37a7,7,0,0,0,1.35-5.92l-2.28-10A7,7,0,0,0,35.72,5h-14a17.74,17.74,0,0,0-3.69.4l-3.52.79A4,4,0,0,0,11,4H7A4,4,0,0,0,3,8V26a4,4,0,0,0,4,4h4a4,4,0,0,0,3.38-1.88,10.83,10.83,0,0,1,3.26,4.15l4.29,9.65a3.51,3.51,0,0,0,5,1.57A5.48,5.48,0,0,0,29.57,38l-1.29-9H38a6.94,6.94,0,0,0,5.46-2.63ZM13,26a2,2,0,0,1-2,2H7a2,2,0,0,1-2-2V8A2,2,0,0,1,7,6h4a2,2,0,0,1,2,2Zm29.87-5.11A5,5,0,0,1,38,27H27.13a1,1,0,0,0-1,1.14l1.45,10.15a3.5,3.5,0,0,1-1.67,3.49,1.55,1.55,0,0,1-2.16-.68l-4.29-9.64A12.76,12.76,0,0,0,15,26.07S15,26,15,26V8.14l3.51-.78A14.92,14.92,0,0,1,21.76,7h14a5,5,0,0,1,4.87,3.89l2.28,10Z"/></svg>