<svg id="Layer_1" data-name="Layer 1" xmlns="http://www.w3.org/2000/svg" viewBox="0 0 48 48">
  <path d="M43.466,18.631c-1.335-1.672-3.328-2.631-5.466-2.631h-9.731l1.301-10.012c.307-2.195-.72-4.349-2.609-5.482-.543-.331-1.172-.506-1.821-.506-1.387,0-2.645,.819-3.217,2.116l-4.278,10.61c-.565,1.283-1.39,2.412-2.388,3.382,.473,.858,.744,1.843,.744,2.892v18c0,.723-.134,1.412-.368,2.054l2.443,.543c1.22,.268,2.459,.403,3.685,.403h13.96c3.29,0,6.096-2.24,6.825-5.447l2.28-10.001c.474-2.088-.022-4.246-1.359-5.92Z" id="id_102" style="fill: rgb(220, 158, 112);"></path>
  <rect x="3" y="15" width="11" height="26" rx="4" ry="4" id="id_103" style="fill: rgb(220, 158, 112);"></rect>
</svg>